<?xml version="1.0" encoding="UTF-8" standalone="no"?>
<svg
   xmlns:dc="http://purl.org/dc/elements/1.1/"
   xmlns:cc="http://creativecommons.org/ns#"
   xmlns:rdf="http://www.w3.org/1999/02/22-rdf-syntax-ns#"
   xmlns:svg="http://www.w3.org/2000/svg"
   xmlns="http://www.w3.org/2000/svg"
   xmlns:xlink="http://www.w3.org/1999/xlink"
   xmlns:sodipodi="http://sodipodi.sourceforge.net/DTD/sodipodi-0.dtd"
   xmlns:inkscape="http://www.inkscape.org/namespaces/inkscape"
   id="238b333a-178b-4cd4-ac1d-e298890126cc"
   data-name="Layer 1"
   width="700"
   height="900"
   viewBox="0 0 700.00002 900.00008"
   version="1.1"
   sodipodi:docname="undraw_search_engines.svg"
   inkscape:version="0.92.1 r15371">
  <metadata
     id="metadata153">
    <rdf:RDF>
      <cc:Work
         rdf:about="">
        <dc:format>image/svg+xml</dc:format>
        <dc:type
           rdf:resource="http://purl.org/dc/dcmitype/StillImage" />
        <dc:title>search engines</dc:title>
      </cc:Work>
    </rdf:RDF>
  </metadata>
  <sodipodi:namedview
     pagecolor="#ffffff"
     bordercolor="#666666"
     borderopacity="1"
     objecttolerance="10"
     gridtolerance="10"
     guidetolerance="10"
     inkscape:pageopacity="0"
     inkscape:pageshadow="2"
     inkscape:window-width="1920"
     inkscape:window-height="1017"
     id="namedview151"
     showgrid="false"
     inkscape:zoom="0.6514434"
     inkscape:cx="149.15982"
     inkscape:cy="564.78913"
     inkscape:window-x="-8"
     inkscape:window-y="-8"
     inkscape:window-maximized="1"
     inkscape:current-layer="238b333a-178b-4cd4-ac1d-e298890126cc" />
  <defs
     id="defs41">
    <linearGradient
       id="73e15490-e73a-4daf-a8fa-871575ee9321"
       x1="435.95001"
       y1="538.90997"
       x2="435.95001"
       y2="377.67999"
       gradientUnits="userSpaceOnUse">
      <stop
         offset="0"
         stop-color="gray"
         stop-opacity="0.25"
         id="stop2" />
      <stop
         offset="0.54"
         stop-color="gray"
         stop-opacity="0.12"
         id="stop4" />
      <stop
         offset="1"
         stop-color="gray"
         stop-opacity="0.1"
         id="stop6" />
    </linearGradient>
    <linearGradient
       id="df8be15c-9459-42d7-bdb7-69a0793b072a"
       x1="895.46002"
       y1="705.26001"
       x2="895.46002"
       y2="584.96997"
       gradientUnits="userSpaceOnUse">
      <stop
         offset="0"
         stop-color="#b3b3b3"
         stop-opacity="0.25"
         id="stop9" />
      <stop
         offset="0.54"
         stop-color="#b3b3b3"
         stop-opacity="0.1"
         id="stop11" />
      <stop
         offset="1"
         stop-color="#b3b3b3"
         stop-opacity="0.05"
         id="stop13" />
    </linearGradient>
    <linearGradient
       id="ec5b6c4a-1901-436f-adb1-6a75e1cf02b2"
       x1="858.28003"
       y1="627.87"
       x2="858.28003"
       y2="622.08002"
       gradientUnits="userSpaceOnUse">
      <stop
         offset="0"
         stop-opacity="0.12"
         id="stop16" />
      <stop
         offset="0.55"
         stop-opacity="0.09"
         id="stop18" />
      <stop
         offset="1"
         stop-opacity="0.02"
         id="stop20" />
    </linearGradient>
    <linearGradient
       id="ad8637ff-19a2-4376-ab14-889c914baa6d"
       x1="884.88"
       y1="621.22998"
       x2="884.88"
       y2="603.52002"
       xlink:href="#ec5b6c4a-1901-436f-adb1-6a75e1cf02b2" />
    <linearGradient
       id="4f6e45b9-bafa-41f4-95be-649755ef2db0"
       x1="547.45001"
       y1="337.10999"
       x2="547.45001"
       y2="180.55"
       xlink:href="#73e15490-e73a-4daf-a8fa-871575ee9321" />
    <clipPath
       id="5a7aca18-822d-4cd6-8022-bc12f6b28c27"
       transform="translate(-164.05 -180.55)">
      <path
         id="19379121-7478-408f-b0f7-0bc5cc67c984"
         data-name="&lt;Clipping Path&gt;"
         d="M 611.43,246.64 H 549 v 25.9 h 35.95 c -3.35,16.45 -17.37,25.9 -35.95,25.9 a 39.605,39.605 0 1 1 0,-79.21 38.75,38.75 0 0 1 24.68,8.83 l 19.5,-19.5 A 67,67 0 1 0 549,325.85 c 33.51,0 64,-24.37 64,-67 a 55.6,55.6 0 0 0 -1.57,-12.21 z"
         inkscape:connector-curvature="0"
         style="fill:none" />
    </clipPath>
    <linearGradient
       id="6627af2f-6387-4a0d-b0b9-ac53cdbc3a5b"
       x1="378.88"
       y1="511.51999"
       x2="378.88"
       y2="366.32999"
       xlink:href="#73e15490-e73a-4daf-a8fa-871575ee9321" />
    <linearGradient
       id="ddaf1a7f-9880-4904-953e-5b43016bf555"
       x1="378.07001"
       y1="483.01999"
       x2="378.07001"
       y2="406.48999"
       xlink:href="#73e15490-e73a-4daf-a8fa-871575ee9321" />
    <linearGradient
       id="ff2f0951-b323-4635-82fe-8231a68c23a1"
       x1="481.22"
       y1="511.34"
       x2="481.22"
       y2="371.35001"
       xlink:href="#73e15490-e73a-4daf-a8fa-871575ee9321" />
    <linearGradient
       id="feead546-cd88-4849-9d6b-2d10146d77ca"
       x1="443.79999"
       y1="328.73999"
       x2="443.79999"
       y2="216.50999"
       xlink:href="#73e15490-e73a-4daf-a8fa-871575ee9321" />
    <linearGradient
       id="11171aa7-1c4b-491e-968e-ec86b16c2491"
       x1="708.40002"
       y1="487.94"
       x2="708.40002"
       y2="415.88"
       xlink:href="#73e15490-e73a-4daf-a8fa-871575ee9321" />
    <linearGradient
       id="e26bf7bd-782d-4f56-b0ff-5a31b16d8be8"
       x1="744.45001"
       y1="486.82001"
       x2="744.45001"
       y2="417.98999"
       xlink:href="#73e15490-e73a-4daf-a8fa-871575ee9321" />
    <linearGradient
       id="585d3746-95bf-4104-b482-1a8856ed9312"
       x1="780.78003"
       y1="486.82001"
       x2="780.78003"
       y2="437.78"
       xlink:href="#73e15490-e73a-4daf-a8fa-871575ee9321" />
    <linearGradient
       id="a907c335-795f-486f-b1b8-609a83bdae17"
       x1="832.78998"
       y1="509.37"
       x2="832.78998"
       y2="437.64001"
       xlink:href="#73e15490-e73a-4daf-a8fa-871575ee9321" />
    <linearGradient
       id="13dbe9af-638b-435e-9f44-8918d669c0cb"
       x1="858.04999"
       y1="379.79001"
       x2="858.04999"
       y2="324.38"
       xlink:href="#73e15490-e73a-4daf-a8fa-871575ee9321" />
    <linearGradient
       id="6e785759-1792-4e56-ab13-97f1c71d675c"
       x1="898.59998"
       y1="381.19"
       x2="898.59998"
       y2="297.72"
       xlink:href="#73e15490-e73a-4daf-a8fa-871575ee9321" />
    <linearGradient
       id="1b9d0fbd-4a18-480c-8952-bc1dca6d3c24"
       x1="939.58002"
       y1="380.98999"
       x2="939.58002"
       y2="323.88"
       xlink:href="#73e15490-e73a-4daf-a8fa-871575ee9321" />
    <linearGradient
       id="08a32409-e9e2-41c9-b320-daf7c916d8a5"
       x1="816.78003"
       y1="381.19"
       x2="816.78003"
       y2="323.67999"
       xlink:href="#73e15490-e73a-4daf-a8fa-871575ee9321" />
    <linearGradient
       id="b2338fc2-5e48-4cc0-83aa-3fe60e8d838c"
       x1="976.13"
       y1="379.79001"
       x2="976.13"
       y2="324.98999"
       xlink:href="#73e15490-e73a-4daf-a8fa-871575ee9321" />
    <linearGradient
       id="250804e8-9fcb-4348-8b6b-ec6692d86991"
       x1="784.46002"
       y1="379.79001"
       x2="784.46002"
       y2="289.72"
       xlink:href="#73e15490-e73a-4daf-a8fa-871575ee9321" />
  </defs>
  <title
     id="title43">search engines</title>
  <g
     id="b66f4108-1dd3-4103-b715-537ec4a4772e"
     data-name="&lt;Group&gt;"
     transform="translate(0,361.09003)">
    <path
       d="m 622.18,244.59 h -72.95 v 30.24 h 42 c -3.91,19.21 -20.28,30.24 -42,30.24 a 46.26,46.26 0 0 1 0,-92.51 45.25,45.25 0 0 1 28.82,10.32 l 22.77,-22.77 a 78.23,78.23 0 1 0 -51.59,137 c 39.14,0 74.72,-28.47 74.72,-78.28 a 64.94,64.94 0 0 0 -1.77,-14.24 z"
       transform="translate(-164.05,-180.55)"
       id="path63"
       inkscape:connector-curvature="0"
       style="fill:url(#4f6e45b9-bafa-41f4-95be-649755ef2db0)" />
  </g>
  <g
     clip-path="url(#5a7aca18-822d-4cd6-8022-bc12f6b28c27)"
     id="g74"
     transform="translate(0,361.09003)">
    <path
       d="m 472.81,298.43 v -79.21 l 51.79,39.6 z"
       transform="translate(-164.05,-180.55)"
       id="path66"
       inkscape:connector-curvature="0"
       style="fill:#fbbc05" />
    <path
       d="m 472.81,219.22 51.79,39.6 21.33,-18.58 L 619,228.36 V 185.71 H 472.81 Z"
       transform="translate(-164.05,-180.55)"
       id="path68"
       inkscape:connector-curvature="0"
       style="fill:#ea4335" />
    <path
       d="m 472.81,298.43 91.4,-70.07 24.07,3 L 619,185.71 V 331.94 H 472.81 Z"
       transform="translate(-164.05,-180.55)"
       id="path70"
       inkscape:connector-curvature="0"
       style="fill:#34a853" />
    <path
       d="M 619,331.94 524.56,258.82 512.37,249.68 619,219.22 Z"
       transform="translate(-164.05,-180.55)"
       id="path72"
       inkscape:connector-curvature="0"
       style="fill:#4285f4" />
  </g>
  <g
     id="d8826248-d006-481d-80db-43bc27daf51c"
     data-name="g3970"
     transform="translate(26.095897,364.16014)">
    <g
       id="90809b75-c047-41d3-8e27-ed57a95840b3"
       data-name="g3956">
      <g
         id="4e8d5321-71ab-4cf6-9531-1699e46183bc"
         data-name="path61">
        <path
           d="m 378.87,366.33 c 42.47,0 74.92,31.43 74.92,72.58 0,41.15 -32.45,72.6 -74.92,72.6 -42.47,0 -74.87,-31.44 -74.87,-72.6 0,-41.16 32.4,-72.58 74.87,-72.58 z m 74.93,145.19 z"
           transform="translate(-164.05,-180.55)"
           id="path76"
           inkscape:connector-curvature="0"
           style="fill:url(#6627af2f-6387-4a0d-b0b9-ac53cdbc3a5b)" />
      </g>
      <g
         id="cd9086b0-0465-4ddd-b26e-08d7ca60be30"
         data-name="g63">
        <g
           id="26e2b761-0ff4-4c57-a74a-b23f719f2f6e"
           data-name="id4">
          <g
             id="aa638075-2341-4c20-8c97-6443789b9aee"
             data-name="path66">
            <path
               d="m 375.65,414 c 0.17,-2.52 0.36,-5 0.71,-7.53 h -57 V 414 c 5.73,0.36 11.29,0.9 17,1.25 10.75,13.08 21.5,26.17 32.43,39.42 V 475 c -6.09,0.54 -12.19,0.9 -18.28,1.44 V 483 h 56.28 v -6.6 c -6.09,-0.37 -12.19,-0.54 -18.28,-0.72 0.18,-7.16 0.36,-14.51 0.54,-21.68 10.57,-9.32 21,-18.64 31.37,-28 5.37,-0.36 10.75,-0.71 16.3,-1.25 V 416 c -15.95,0.18 -31.72,0.36 -47.67,0.71 v 7.36 c 5.91,0.36 11.83,0.53 17.74,0.71 -7.7,6.63 -15.42,13.08 -23.12,19.72 -7.89,-9.68 -15.77,-19.53 -23.66,-29.22 5.24,-0.55 10.43,-0.9 15.64,-1.28 z"
               transform="translate(-164.05,-180.55)"
               id="path79"
               inkscape:connector-curvature="0"
               style="fill:url(#ddaf1a7f-9880-4904-953e-5b43016bf555)" />
          </g>
        </g>
      </g>
      <g
         id="c909fb51-d884-4b77-9a53-133209191f18"
         data-name="g68">
        <g
           id="fad3897a-b382-46ab-97cd-992d89cd1312"
           data-name="id5">
          <g
             id="b723b098-9615-45ec-9744-2c024445d2d9"
             data-name="path71">
            <path
               d="m 506,373.52 -43.2,-2.16 c -0.72,34.24 -1.44,68.65 -2.15,102.89 6.81,0.71 13.8,1.43 20.6,2.15 Q 493.58,424.78 506,373.52 Z m -47.37,137.82 h 24.73 v -20.6 l -26.88,-2.15 c 0.71,7.7 1.44,15.23 2.15,22.75 z"
               transform="translate(-164.05,-180.55)"
               id="path84"
               inkscape:connector-curvature="0"
               style="fill:url(#ff2f0951-b323-4635-82fe-8231a68c23a1)" />
          </g>
        </g>
      </g>
    </g>
  </g>
  <g
     id="c54374c9-5ce3-408c-944d-67488ba47ad9"
     data-name="g3970"
     transform="translate(26.095897,364.16014)">
    <g
       id="0625f036-f82d-4f60-b46b-c9ebda46575e"
       data-name="g3956">
      <path
         id="0af1f165-b901-461e-ab4c-b27d5265da26"
         data-name="path61"
         d="m 381.57,373.83 c 38.09,0 67.18,28.18 67.18,65.09 0,36.91 -29.1,65.08 -67.18,65.08 -38.08,0 -67.18,-28.19 -67.18,-65.1 0,-36.91 29.09,-65.07 67.18,-65.07 z M 448.76,504 Z"
         transform="translate(-164.05,-180.55)"
         inkscape:connector-curvature="0"
         style="fill:#6b0094" />
      <g
         id="c03fa78e-fbaa-491c-9ca6-f015ede67acc"
         data-name="g63">
        <g
           id="88a9ccd2-aa29-411b-a295-ecc501fde54c"
           data-name="id4">
          <path
             id="f24379df-238d-4d18-84fa-01d663e5d57c"
             data-name="path66"
             d="m 378.68,416.59 c 0.15,-2.26 0.32,-4.51 0.64,-6.75 h -51.11 v 6.75 c 5.13,0.32 10.12,0.8 15.27,1.12 9.64,11.73 19.28,23.47 29.08,35.35 v 18.17 c -5.46,0.48 -10.93,0.8 -16.39,1.29 v 5.94 h 50.47 v -5.94 c -5.46,-0.33 -10.93,-0.48 -16.39,-0.65 0.17,-6.42 0.32,-13 0.48,-19.44 9.47,-8.36 18.81,-16.71 28.13,-25.07 4.81,-0.32 9.64,-0.64 14.62,-1.12 v -7.88 c -14.3,0.17 -28.45,0.32 -42.75,0.64 v 6.6 c 5.3,0.32 10.61,0.47 15.91,0.64 -6.91,5.95 -13.83,11.73 -20.73,17.68 -7.07,-8.68 -14.15,-17.52 -21.22,-26.2 4.66,-0.49 9.31,-0.81 13.99,-1.13 z"
             transform="translate(-164.05,-180.55)"
             inkscape:connector-curvature="0"
             style="fill:#ffffff" />
        </g>
      </g>
      <g
         id="bed980a8-54d9-4ead-8aa7-7019110c4f84"
         data-name="g68">
        <g
           id="4054f81e-5c95-4b6b-9e19-71fd8b4446f2"
           data-name="id5">
          <path
             id="131db97b-3cb7-4435-addf-77d62cece6dc"
             data-name="path71"
             d="m 495.52,380.27 -38.74,-1.94 c -0.65,30.7 -1.29,61.56 -1.93,92.27 6.1,0.64 12.37,1.28 18.48,1.93 q 11.09,-46.29 22.19,-92.26 z m -42.43,123.59 h 22.18 v -18.48 l -24.1,-1.93 c 0.63,6.91 1.28,13.66 1.92,20.41 z"
             transform="translate(-164.05,-180.55)"
             inkscape:connector-curvature="0"
             style="fill:#6b0094" />
        </g>
      </g>
    </g>
  </g>
  <g
     id="8dc6b1c1-e606-4fc7-a28b-e59b8b7d9e91"
     data-name="layer1"
     transform="translate(-30.701056,-47.23401)">
    <g
       id="3383feb4-8fcc-4817-9f82-bc69d4bd9416"
       data-name="path2998">
      <polygon
         points="398.91,216.51 424.61,224.38 424.61,287.81 399.65,310.05 460.56,278.01 443.68,270.37 432.25,245.59 488.7,262.89 488.7,290.48 424.45,328.74 398.91,310.84 "
         id="polygon100"
         style="fill:url(#feead546-cd88-4849-9d6b-2d10146d77ca)" />
    </g>
    <g
       id="adf0c4a8-c861-4f67-ad45-bfc4516b4b15"
       data-name="flowRoot3000">
      <g
         id="5241a0fb-1782-4a0b-a8f5-d9d23bc6ad1c"
         data-name="path3009">
        <path
           d="M 694.22,479.89 H 694 v 6.92 h -7.67 v -70.93 l 7.67,2.29 v 29.16 h 0.19 q 5.66,-9.54 16.56,-9.55 9.22,0 14.43,6.43 5.21,6.43 5.22,17.24 0,12 -5.85,19.25 -5.85,7.25 -16,7.23 a 15.76,15.76 0 0 1 -14.33,-8.04 z M 694,460.57 v 6.69 a 14.25,14.25 0 0 0 3.86,10.08 13.77,13.77 0 0 0 20.73,-1.19 q 4,-5.33 4,-14.83 0,-8 -3.7,-12.54 a 12.23,12.23 0 0 0 -10,-4.54 13.6,13.6 0 0 0 -10.76,4.66 17.09,17.09 0 0 0 -4.13,11.67 z"
           transform="translate(-164.05,-180.55)"
           id="path103"
           inkscape:connector-curvature="0"
           style="fill:url(#11171aa7-1c4b-491e-968e-ec86b16c2491)" />
      </g>
      <g
         id="e9bd7740-3bac-4f11-9098-850597dc5964"
         data-name="path3011">
        <path
           d="m 744.4,428 a 4.86,4.86 0 0 1 -3.51,-1.4 4.74,4.74 0 0 1 -1.45,-3.56 4.91,4.91 0 0 1 5,-5 5,5 0 0 1 3.58,1.43 5,5 0 0 1 0,7.09 4.91,4.91 0 0 1 -3.62,1.44 z m 3.74,58.85 h -7.67 V 438.9 h 7.67 z"
           transform="translate(-164.05,-180.55)"
           id="path106"
           inkscape:connector-curvature="0"
           style="fill:url(#e26bf7bd-782d-4f56-b0ff-5a31b16d8be8)" />
      </g>
      <g
         id="9d1a5a1d-38c0-45ad-a4b7-043d8bfe2cf6"
         data-name="path3013">
        <path
           d="M 800.67,486.82 H 793 v -27.33 q 0,-15.25 -11.14,-15.25 a 12.08,12.08 0 0 0 -9.52,4.33 16,16 0 0 0 -3.77,10.93 v 27.33 H 760.9 V 438.9 h 7.67 v 8 h 0.19 q 5.43,-9.08 15.72,-9.08 7.86,0 12,5.08 4.14,5.08 4.16,14.67 z"
           transform="translate(-164.05,-180.55)"
           id="path109"
           inkscape:connector-curvature="0"
           style="fill:url(#585d3746-95bf-4104-b482-1a8856ed9312)" />
      </g>
      <g
         id="d360da2a-da29-47f1-af73-68a568081c1c"
         data-name="path3015">
        <path
           d="m 855,483 q 0,26.39 -25.27,26.39 A 33.92,33.92 0 0 1 814.15,506 l 2.1,-6.87 c 4.69,2.32 9,3.61 13.32,3.61 11.4,0 17.71,-6.19 17.71,-18.73 v -5.24 h -0.19 q -5.47,9.17 -16.47,9.17 a 18,18 0 0 1 -14.39,-6.39 c -3.63,-4.26 -5.61,-10.05 -5.61,-17.23 0,-8.14 2.11,-14.54 6,-19.34 3.89,-4.8 9.38,-7.34 16.18,-7.34 6.46,0 11.13,2.34 14.25,7.52 h 0.19 V 438.9 H 855 Z m -7.67,-17.83 v -7.07 a 13.82,13.82 0 0 0 -13.48,-13.85 c -11.11,0 -15.08,10.11 -15.16,19.65 0,9.11 4.63,17.24 14.08,17.24 9.45,0 14.42,-7.49 14.51,-15.99 z"
           transform="translate(-164.05,-180.55)"
           id="path112"
           inkscape:connector-curvature="0"
           style="fill:url(#a907c335-795f-486f-b1b8-609a83bdae17)" />
      </g>
    </g>
  </g>
  <g
     id="b32b3bd2-e2ac-448f-8e9d-3efea7831205"
     data-name="layer1"
     transform="translate(-30.701056,-47.23401)">
    <path
       id="862837c3-f02c-4075-80e2-0d6e8e0a806a"
       data-name="path2998"
       d="M 595.1,506.22 571,489.29 v -89.16 l 24.29,7.44 v 59.95 l -23.59,21 57.57,-30.29 -16,-7.22 -10.8,-23.42 53.36,16.41 v 26 z"
       transform="translate(-164.05,-180.55)"
       inkscape:connector-curvature="0"
       style="fill:#f4bd27" />
    <g
       id="b78c3c1b-fd7c-4cdd-831f-943502e589c6"
       data-name="flowRoot3000">
      <path
         id="a1aaba5c-87d1-494e-b4db-e2424d267e74"
         data-name="path3009"
         d="m 695,478.43 h -0.18 V 485 h -7.22 v -67 l 7.25,2.16 v 27.56 H 695 q 5.35,-9 15.66,-9 8.71,0 13.64,6.08 4.93,6.08 4.93,16.3 0,11.37 -5.53,18.2 -5.53,6.83 -15.1,6.7 A 14.9,14.9 0 0 1 695,478.43 Z m -0.18,-18.27 v 6.32 a 13.47,13.47 0 0 0 3.68,9.52 13,13 0 0 0 19.59,-1.13 q 3.74,-5 3.74,-14 0,-7.56 -3.49,-11.85 a 11.56,11.56 0 0 0 -9.46,-4.29 12.85,12.85 0 0 0 -10.17,4.4 16.16,16.16 0 0 0 -3.85,11 z"
         transform="translate(-164.05,-180.55)"
         inkscape:connector-curvature="0"
         style="fill:#f4bd27" />
      <path
         id="c2b46ba4-c904-4cc9-9109-f48bfd422836"
         data-name="path3011"
         d="m 742.46,429.34 a 4.59,4.59 0 0 1 -3.32,-1.33 4.48,4.48 0 0 1 -1.37,-3.36 4.64,4.64 0 0 1 4.69,-4.73 4.68,4.68 0 0 1 3.38,1.35 4.72,4.72 0 0 1 0,6.7 4.64,4.64 0 0 1 -3.38,1.37 z M 746,485 h -7.25 V 439.69 H 746 Z"
         transform="translate(-164.05,-180.55)"
         inkscape:connector-curvature="0"
         style="fill:#f4bd27" />
      <path
         id="e38629ea-396c-4cd4-a9ef-8c6412e7dcde"
         data-name="path3013"
         d="m 795.64,485 h -7.25 v -25.85 q 0,-14.42 -10.53,-14.42 a 11.42,11.42 0 0 0 -9,4.09 15.16,15.16 0 0 0 -3.56,10.33 V 485 h -7.25 v -45.31 h 7.25 v 7.52 h 0.18 q 5.13,-8.58 14.86,-8.58 7.43,0 11.37,4.8 3.94,4.8 3.94,13.86 z"
         transform="translate(-164.05,-180.55)"
         inkscape:connector-curvature="0"
         style="fill:#f4bd27" />
      <path
         id="b7a43e19-a069-4d09-9407-0ca788ab83ee"
         data-name="path3015"
         d="m 847,481.35 q 0,24.94 -23.88,24.94 a 32.07,32.07 0 0 1 -14.68,-3.18 l 2,-6.5 c 4.44,2.19 8.52,3.41 12.59,3.41 10.78,0 16.74,-5.85 16.74,-17.7 v -5 h -0.18 Q 834.35,486 824,486 a 17,17 0 0 1 -13.6,-6 c -3.43,-4 -5.3,-9.5 -5.3,-16.28 0,-7.7 2,-13.74 5.7,-18.28 3.7,-4.54 8.87,-6.94 15.3,-6.94 6.1,0 10.52,2.21 13.47,7.1 h 0.18 v -5.91 H 847 Z m -7.3,-16.85 v -6.68 A 13.06,13.06 0 0 0 827,444.73 c -10.5,0 -14.25,9.55 -14.33,18.57 0,8.61 4.38,16.29 13.31,16.29 8.93,0 13.63,-7.06 13.72,-15.09 z"
         transform="translate(-164.05,-180.55)"
         inkscape:connector-curvature="0"
         style="fill:#f4bd27" />
    </g>
  </g>
  <g
     id="79792e90-82bf-4238-a4af-cd0948953fb1"
     data-name="g10"
     transform="translate(-587.92521,606.69847)">
    <g
       id="d238b1b1-b934-4f75-9b9b-f38f789b39c3"
       data-name="path38">
      <path
         d="m 862.05,324.38 c -5.31,0 -10.84,3.88 -10.84,3.88 v -2.49 c 0,-0.55 -0.22,-0.77 -0.76,-0.77 h -6.78 a 0.78,0.78 0 0 0 -0.87,0.77 v 53.15 c 0,0.55 0.22,0.88 0.77,0.88 h 6.89 a 0.78,0.78 0 0 0 0.76,-0.88 v -45.5 a 14.73,14.73 0 0 1 7.08,-2 c 3.7,0 6.61,1.84 6.61,5.6 v 41.92 a 0.81,0.81 0 0 0 0.87,0.88 h 6.77 a 0.78,0.78 0 0 0 0.76,-0.88 v -44.33 c 0,-6.67 -4.1,-10.23 -11.26,-10.23 z"
         transform="translate(-164.05,-180.55)"
         id="path124"
         inkscape:connector-curvature="0"
         style="fill:url(#13dbe9af-638b-435e-9f44-8918d669c0cb)" />
    </g>
    <g
       id="917579d8-8aae-424a-b443-a10d1fe52665"
       data-name="path40">
      <path
         d="M 914.76,297.72 H 908 a 0.78,0.78 0 0 0 -0.87,0.77 v 26.81 a 20,20 0 0 0 -6.88,-1.53 c -11,0 -18.56,10.53 -18.56,30.77 0,17.34 7.35,26.65 16.94,26.65 4,0 7.38,-2.32 9.82,-4.49 l 1.48,2.51 a 0.93,0.93 0 0 0 1,0.58 h 3.9 a 0.78,0.78 0 0 0 0.77,-0.88 v -80.43 c 0,-0.55 -0.22,-0.77 -0.76,-0.77 z m -24.13,55 c 0,-11.15 3.26,-22.2 9.92,-22.2 a 10.28,10.28 0 0 1 6.56,2.44 v 39.3 a 12.85,12.85 0 0 1 -6,1.75 c -7.28,-0.01 -10.48,-8.57 -10.48,-21.26 z"
         transform="translate(-164.05,-180.55)"
         id="path127"
         inkscape:connector-curvature="0"
         style="fill:url(#6e785759-1792-4e56-ab13-97f1c71d675c)" />
    </g>
    <g
       id="8c6db44b-25c2-4c11-b17a-480760c306ff"
       data-name="path42">
      <path
         d="m 940.72,323.88 c -11.28,0 -16.85,14.77 -16.85,30.85 0,16.83 7.94,26.26 18.16,26.26 a 25.82,25.82 0 0 0 11.89,-3.4 0.82,0.82 0 0 0 0.42,-1 l -0.86,-3.56 a 0.76,0.76 0 0 0 -0.87,-0.65 36.23,36.23 0 0 1 -7.54,1.08 c -8.36,0 -12.19,-7.44 -12.19,-17.31 v -2.4 a 63.71,63.71 0 0 0 6.65,0.58 h 15.77 v -4.56 c 0,-16.84 -5.89,-25.85 -14.57,-25.85 z m -0.54,23.57 c -2.5,0 -7,0.62 -7,0.62 0,0 0.06,-1.81 0.28,-3.55 1,-9.23 3.18,-13.9 7,-13.9 3.3,0 5.57,4.78 6.11,13.14 0.11,1.74 0.11,3.69 0.11,3.69 h -6.43 z"
         transform="translate(-164.05,-180.55)"
         id="path130"
         inkscape:connector-curvature="0"
         style="fill:url(#1b9d0fbd-4a18-480c-8952-bc1dca6d3c24)" />
    </g>
    <g
       id="c697e1ca-ddd9-45ac-9ec9-31a6877d9bb6"
       data-name="path44">
      <path
         d="m 829.92,330.78 c -2.51,-4.94 -7,-7.1 -12.08,-7.1 a 33.86,33.86 0 0 0 -11.83,2.8 c -0.67,0.3 -1.09,0.57 -1.09,1.09 a 2.21,2.21 0 0 0 0.33,1 l 2.31,4.94 a 1,1 0 0 0 0.93,0.69 1.71,1.71 0 0 0 0.92,-0.36 c 3.34,-2.14 5.79,-3.31 7.72,-3.31 2.56,0 4.3,1.7 5.37,4.26 a 25.6,25.6 0 0 1 1.39,9.48 c 0,0.49 0,1.12 0,1.12 a 17.27,17.27 0 0 0 -7.57,-2 c -9.79,0 -15.07,9.31 -15.07,19.26 0,10.73 6.17,18.59 13.59,18.59 4.13,0 7.87,-2.43 10.37,-5.48 0,0 1.33,3.18 1.51,3.56 a 0.77,0.77 0 0 0 0.86,0.52 h 4 a 0.78,0.78 0 0 0 0.76,-0.88 v -30.88 c 0,-7.58 -0.38,-13.36 -2.38,-17.3 z m -6,40.39 a 9.43,9.43 0 0 1 -6.36,2.86 5.94,5.94 0 0 1 -5,-2.76 c -1.58,-2.18 -2.31,-5.54 -2.31,-9.25 0,-5.88 2.17,-11.91 6.77,-11.91 a 11.15,11.15 0 0 1 6.91,2.44 v 18.63 z"
         transform="translate(-164.05,-180.55)"
         id="path133"
         inkscape:connector-curvature="0"
         style="fill:url(#08a32409-e9e2-41c9-b320-daf7c916d8a5)" />
    </g>
    <g
       id="ff4fa252-6ee1-4f25-bde5-0a4b374039a4"
       data-name="path46">
      <path
         d="m 991.08,325 h -6 a 1.17,1.17 0 0 0 -1.19,0.81 c -0.38,1 -2.94,7.73 -4,10.52 -0.75,2 -2.76,7.69 -2.76,7.69 h -0.23 c 0,0 -1.48,-4.15 -2.28,-6.21 -0.64,-1.68 -4,-10.54 -4.44,-11.64 -0.23,-0.59 -0.48,-1.17 -1.35,-1.17 h -6.63 a 1,1 0 0 0 -0.9,1.29 c 0.24,0.5 10.77,24.51 10.77,24.51 0,0 -11.31,26.89 -11.64,27.49 a 1,1 0 0 0 0.89,1.5 h 5.79 c 1,0 1.37,-0.52 1.67,-1.35 0.83,-2.33 2.07,-5.58 3.83,-10.6 1.16,-3.33 3,-9.16 3,-9.16 h 0.2 c 0,0 2,5.95 2.76,7.89 1.89,4.92 4.32,11.34 4.57,12 0.25,0.66 0.64,1.2 1.32,1.2 H 991 c 0.65,0 1,-0.74 0.65,-1.39 -0.73,-1.54 -7,-16.72 -11.3,-26.69 0,0 11.25,-24.84 11.47,-25.45 0.22,-0.61 0.15,-1.26 -0.77,-1.26 z"
         transform="translate(-164.05,-180.55)"
         id="path136"
         inkscape:connector-curvature="0"
         style="fill:url(#b2338fc2-5e48-4cc0-83aa-3fe60e8d838c)" />
    </g>
    <g
       id="79f0924f-12b4-4187-96c3-4ef7db672aef"
       data-name="path48">
      <path
         d="m 808.1,289.72 h -7.62 a 1.09,1.09 0 0 0 -1.19,0.81 c -0.1,0.48 -11.42,35 -12.25,37.92 -0.58,2 -2.49,9.24 -2.94,11 l -3.94,-10.76 c -1,-3 -10.13,-28.61 -10.4,-29.64 -0.15,-0.56 -0.41,-1.26 -1.39,-1.26 h -7.44 A 1,1 0 0 0 760,299 c 0.19,0.4 13.62,36.16 19,49.82 v 30 c 0,0.55 0.22,0.88 0.77,0.88 h 7 a 0.78,0.78 0 0 0 0.76,-0.88 v -29.8 c 4.52,-12.64 21,-57.62 21.23,-58.13 0.23,-0.51 0.16,-1.26 -0.77,-1.26 z"
         transform="translate(-164.05,-180.55)"
         id="path139"
         inkscape:connector-curvature="0"
         style="fill:url(#250804e8-9fcb-4348-8b6b-ec6692d86991)" />
    </g>
  </g>
  <g
     id="d1c7a373-120e-4263-88e0-20e0671c3dc9"
     data-name="g10"
     transform="translate(-587.92521,606.69847)">
    <path
       id="8b7152ff-683f-476b-a613-e78fe121e9f8"
       data-name="path38"
       d="m 863,325.14 c -4.94,0 -10.1,3.61 -10.1,3.61 v -2.32 c 0,-0.51 -0.2,-0.71 -0.71,-0.71 h -6.31 a 0.73,0.73 0 0 0 -0.81,0.71 v 49.49 c 0,0.51 0.2,0.82 0.71,0.82 h 6.41 a 0.73,0.73 0 0 0 0.71,-0.82 v -42.36 a 13.71,13.71 0 0 1 6.59,-1.89 c 3.44,0 6.16,1.71 6.16,5.21 v 39 a 0.75,0.75 0 0 0 0.81,0.82 h 6.31 a 0.72,0.72 0 0 0 0.71,-0.82 v -41.21 c 0.01,-6.22 -3.8,-9.53 -10.48,-9.53 z"
       transform="translate(-164.05,-180.55)"
       inkscape:connector-curvature="0"
       style="fill:#010202" />
    <path
       id="c6648a63-5afe-4686-8775-d8042d885f82"
       data-name="path40"
       d="m 912.08,300.32 h -6.31 a 0.73,0.73 0 0 0 -0.81,0.71 v 25 a 18.64,18.64 0 0 0 -6.41,-1.42 c -10.25,0 -17.28,9.8 -17.28,28.65 0,16.15 6.84,24.81 15.77,24.81 3.76,0 6.87,-2.16 9.15,-4.18 l 1.38,2.34 a 0.86,0.86 0 0 0 0.89,0.54 h 3.63 a 0.73,0.73 0 0 0 0.71,-0.82 V 301 c 0,-0.51 -0.2,-0.71 -0.71,-0.71 z m -22.47,51.24 c 0,-10.39 3,-20.67 9.24,-20.67 a 9.57,9.57 0 0 1 6.11,2.27 v 36.59 a 12,12 0 0 1 -5.62,1.63 c -6.74,0 -9.72,-8.01 -9.72,-19.82 z"
       transform="translate(-164.05,-180.55)"
       inkscape:connector-curvature="0"
       style="fill:#010202" />
    <path
       id="8ebde601-e4a8-4ba4-a58e-6ed2eed807f8"
       data-name="path42"
       d="m 936.25,324.68 c -10.51,0 -15.69,13.75 -15.69,28.72 0,15.67 7.4,24.45 16.9,24.45 a 24,24 0 0 0 11.07,-3.16 0.77,0.77 0 0 0 0.39,-1 l -0.8,-3.31 a 0.7,0.7 0 0 0 -0.81,-0.61 33.73,33.73 0 0 1 -7,1 c -7.78,0 -11.35,-6.92 -11.35,-16.12 v -2.23 a 59.31,59.31 0 0 0 6.19,0.54 h 14.68 v -4.25 c 0,-15.68 -5.49,-24.07 -13.57,-24.07 z m -0.51,21.95 c -2.32,0 -6.55,0.57 -6.55,0.57 0,0 0.06,-1.69 0.26,-3.31 0.91,-8.6 3,-12.94 6.5,-12.94 3.08,0 5.18,4.45 5.69,12.24 0.1,1.62 0.1,3.44 0.1,3.44 z"
       transform="translate(-164.05,-180.55)"
       inkscape:connector-curvature="0"
       style="fill:#010202" />
    <path
       id="b4bb227d-30ce-41b9-90ac-a7d472bb05c4"
       data-name="path44"
       d="m 833.1,331.11 c -2.33,-4.6 -6.49,-6.61 -11.25,-6.61 a 31.52,31.52 0 0 0 -11,2.6 c -0.62,0.28 -1,0.53 -1,1 a 2.06,2.06 0 0 0 0.31,0.92 l 2.15,4.6 a 0.91,0.91 0 0 0 0.87,0.64 1.59,1.59 0 0 0 0.86,-0.33 c 3.11,-2 5.39,-3.08 7.19,-3.08 2.39,0 4,1.58 5,4 a 23.84,23.84 0 0 1 1.29,8.83 c 0,0.45 0,1 0,1 a 16.08,16.08 0 0 0 -7,-1.9 c -9.12,0 -14,8.67 -14,17.93 0,10 5.75,17.31 12.65,17.31 3.85,0 7.33,-2.26 9.66,-5.11 0,0 1.24,3 1.4,3.32 a 0.72,0.72 0 0 0 0.8,0.49 h 3.69 a 0.73,0.73 0 0 0 0.71,-0.82 v -28.69 c 0,-7.05 -0.36,-12.43 -2.22,-16.1 z m -5.62,37.61 a 8.78,8.78 0 0 1 -5.92,2.66 5.53,5.53 0 0 1 -4.66,-2.57 c -1.47,-2 -2.15,-5.15 -2.15,-8.61 0,-5.47 2,-11.09 6.3,-11.09 a 10.38,10.38 0 0 1 6.43,2.27 z"
       transform="translate(-164.05,-180.55)"
       inkscape:connector-curvature="0"
       style="fill:#010202" />
    <path
       id="0e65a99c-9adc-4d1d-86b7-022bb92efd88"
       data-name="path46"
       d="m 983.14,325.71 h -5.62 a 1.09,1.09 0 0 0 -1.11,0.76 c -0.36,0.94 -2.73,7.2 -3.71,9.79 -0.69,1.85 -2.57,7.16 -2.57,7.16 h -0.22 c 0,0 -1.38,-3.86 -2.12,-5.79 -0.6,-1.56 -3.73,-9.82 -4.13,-10.84 -0.21,-0.55 -0.45,-1.09 -1.25,-1.09 h -6.16 a 0.91,0.91 0 0 0 -0.84,1.2 c 0.22,0.46 10,22.82 10,22.82 0,0 -10.53,25 -10.84,25.6 a 1,1 0 0 0 0.83,1.39 h 5.4 c 0.92,0 1.28,-0.48 1.56,-1.26 0.78,-2.17 1.93,-5.2 3.57,-9.87 1.08,-3.1 2.8,-8.53 2.8,-8.53 h 0.19 c 0,0 1.88,5.54 2.57,7.35 1.76,4.58 4,10.56 4.26,11.19 0.26,0.63 0.6,1.12 1.23,1.12 h 6.12 c 0.61,0 0.89,-0.69 0.6,-1.29 -0.68,-1.44 -6.49,-15.56 -10.53,-24.85 0,0 10.47,-23.12 10.67,-23.7 0.2,-0.58 0.14,-1.18 -0.72,-1.18 z"
       transform="translate(-164.05,-180.55)"
       inkscape:connector-curvature="0"
       style="fill:#010202" />
    <path
       id="c96c6d06-e931-4679-98ae-89e17d7c35f9"
       data-name="path48"
       d="m 812.78,292.87 h -7.09 a 1,1 0 0 0 -1.11,0.76 c -0.09,0.45 -10.64,32.63 -11.4,35.31 -0.54,1.9 -2.32,8.6 -2.74,10.21 l -3.67,-10 c -0.89,-2.76 -9.43,-26.64 -9.68,-27.59 -0.14,-0.52 -0.38,-1.18 -1.3,-1.18 h -6.92 a 0.91,0.91 0 0 0 -0.84,1.2 c 0.17,0.37 12.68,33.67 17.73,46.39 v 28 c 0,0.51 0.2,0.82 0.71,0.82 H 793 a 0.73,0.73 0 0 0 0.71,-0.82 v -27.8 c 4.21,-11.77 19.6,-53.65 19.76,-54.12 0.16,-0.47 0.14,-1.18 -0.72,-1.18 z"
       transform="translate(-164.05,-180.55)"
       inkscape:connector-curvature="0"
       style="fill:#e52620" />
  </g>
</svg>
