<?xml version="1.0" encoding="UTF-8" standalone="no"?>
<svg
   xmlns:dc="http://purl.org/dc/elements/1.1/"
   xmlns:cc="http://creativecommons.org/ns#"
   xmlns:rdf="http://www.w3.org/1999/02/22-rdf-syntax-ns#"
   xmlns:svg="http://www.w3.org/2000/svg"
   xmlns="http://www.w3.org/2000/svg"
   xmlns:xlink="http://www.w3.org/1999/xlink"
   xmlns:sodipodi="http://sodipodi.sourceforge.net/DTD/sodipodi-0.dtd"
   xmlns:inkscape="http://www.inkscape.org/namespaces/inkscape"
   id="e66cdcae-b662-46fb-b424-18ba1a805fb0"
   data-name="Layer 1"
   width="832.5"
   height="677.84461"
   viewBox="0 0 832.5 677.84461"
   version="1.1"
   sodipodi:docname="undraw_bookmarks.svg"
   inkscape:version="0.92.1 r15371">
  <metadata
     id="metadata163">
    <rdf:RDF>
      <cc:Work
         rdf:about="">
        <dc:format>image/svg+xml</dc:format>
        <dc:type
           rdf:resource="http://purl.org/dc/dcmitype/StillImage" />
      </cc:Work>
    </rdf:RDF>
  </metadata>
  <defs
     id="defs161">
    <linearGradient
       id="b4bb9b24-9fbd-4855-955e-d2374dfaf9d1"
       x1="887.41998"
       y1="237"
       x2="887.41998"
       y2="219.3"
       xlink:href="#88c69e1d-c781-40a9-bf13-f8010c5ba138"
       gradientTransform="translate(-317.58664,-90.415211)" />
    <linearGradient
       id="88c69e1d-c781-40a9-bf13-f8010c5ba138"
       x1="860.83002"
       y1="243.64999"
       x2="860.83002"
       y2="237.86"
       gradientUnits="userSpaceOnUse">
      <stop
         offset="0"
         stop-opacity="0.12"
         id="stop16" />
      <stop
         offset="0.55"
         stop-opacity="0.09"
         id="stop18" />
      <stop
         offset="1"
         stop-opacity="0.02"
         id="stop20" />
    </linearGradient>
    <linearGradient
       inkscape:collect="always"
       xlink:href="#88c69e1d-c781-40a9-bf13-f8010c5ba138"
       id="linearGradient4541"
       gradientUnits="userSpaceOnUse"
       x1="860.83002"
       y1="243.64999"
       x2="860.83002"
       y2="237.86"
       gradientTransform="translate(-317.58664,-90.415211)" />
    <linearGradient
       id="1e668cbb-e7c2-4a39-9f64-b81df751fdab"
       x1="898"
       y1="321.04001"
       x2="898"
       y2="200.75"
       gradientUnits="userSpaceOnUse"
       gradientTransform="translate(-317.58664,-90.415211)">
      <stop
         offset="0"
         stop-color="#b3b3b3"
         stop-opacity="0.25"
         id="stop9" />
      <stop
         offset="0.54"
         stop-color="#b3b3b3"
         stop-opacity="0.1"
         id="stop11" />
      <stop
         offset="1"
         stop-color="#b3b3b3"
         stop-opacity="0.05"
         id="stop13" />
    </linearGradient>
  </defs>
  <sodipodi:namedview
     pagecolor="#ffffff"
     bordercolor="#666666"
     borderopacity="1"
     objecttolerance="10"
     gridtolerance="10"
     guidetolerance="10"
     inkscape:pageopacity="0"
     inkscape:pageshadow="2"
     inkscape:window-width="1920"
     inkscape:window-height="1017"
     id="namedview159"
     showgrid="false"
     inkscape:zoom="1.3645646"
     inkscape:cx="394.08913"
     inkscape:cy="235.08211"
     inkscape:window-x="-8"
     inkscape:window-y="-8"
     inkscape:window-maximized="1"
     inkscape:current-layer="e66cdcae-b662-46fb-b424-18ba1a805fb0" />
  <title
     id="title2">bookmarks</title>
  <g
     id="g4686"
     transform="matrix(-0.45473468,0,0,0.45473468,895.59312,112.81521)">
    <path
       style="fill:url(#1e668cbb-e7c2-4a39-9f64-b81df751fdab)"
       inkscape:connector-curvature="0"
       id="path35"
       d="m 601.17335,124.58479 a 46.32,46.32 0 1 0 -7.58,70.55 l 33.48,34.83 a 2.25,2.25 0 0 0 3.19,0.06 l 8.34,-8 a 2.25,2.25 0 0 0 0.06,-3.19 l -33.48,-34.83 a 46.32,46.32 0 0 0 -4.01,-59.42 z m -10.43,56 a 33.13,33.13 0 1 1 0.92,-46.85 33.13,33.13 0 0 1 -0.92,46.8 z" />
    <path
       style="fill:url(#linearGradient4541)"
       inkscape:connector-curvature="0"
       id="path37"
       d="m 543.24335,147.44479 c -3.73,0 -3.73,5.79 0,5.79 3.73,0 3.73,-5.79 0,-5.79 z" />
    <path
       style="fill:url(#b4bb9b24-9fbd-4855-955e-d2374dfaf9d1)"
       inkscape:connector-curvature="0"
       id="path39"
       d="m 569.21335,128.89479 a 27.83,27.83 0 0 0 -24,12.4 c -1.58,2.48 2.91,4.67 4.49,2.2 4,-6.29 11.65,-10.28 19.9,-10.07 a 25.36,25.36 0 0 1 20.69,12 c 1.58,2.61 5.73,0.24 4.15,-2.35 -5.03,-8.3 -14.87,-13.95 -25.23,-14.18 z" />
    <path
       style="fill:#00a2b8"
       inkscape:connector-curvature="0"
       id="path41"
       d="m 601.17335,119.45479 a 46.32,46.32 0 1 0 -7.58,70.55 l 33.48,34.83 a 2.25,2.25 0 0 0 3.19,0.06 l 8.34,-8 a 2.25,2.25 0 0 0 0.06,-3.19 l -33.48,-34.83 a 46.32,46.32 0 0 0 -4.01,-59.42 z m -10.43,56 a 33.13,33.13 0 1 1 0.92,-46.85 33.13,33.13 0 0 1 -0.92,46.84 z" />
    <path
       style="fill:#00a2b8"
       inkscape:connector-curvature="0"
       id="path43"
       d="m 543.24335,142.34479 c -3.73,0 -3.73,5.79 0,5.79 3.73,0 3.73,-5.79 0,-5.79 z" />
    <path
       style="fill:#00a2b8"
       inkscape:connector-curvature="0"
       id="path45"
       d="m 569.21335,123.80479 a 27.83,27.83 0 0 0 -24,12.4 c -1.58,2.48 2.91,4.67 4.49,2.2 4,-6.29 11.65,-10.28 19.9,-10.07 a 25.36,25.36 0 0 1 20.69,12 c 1.58,2.61 5.73,0.24 4.15,-2.35 -5.03,-8.3 -14.87,-13.95 -25.23,-14.18 z" />
  </g>
  <ellipse
     cx="667"
     cy="643.84461"
     rx="151"
     ry="34"
     fill="#00a2b8"
     id="ellipse4"
     style="fill:#00a2b8;fill-opacity:0.11666667" />
  <ellipse
     cx="681"
     cy="633.84461"
     rx="151"
     ry="34"
     fill="none"
     stroke="#3f3d56"
     stroke-miterlimit="10"
     id="ellipse6" />
  <circle
     cx="438.08487"
     cy="236.46857"
     r="30"
     id="circle8"
     style="fill:#00a2b8;fill-opacity:0.24444444" />
  <circle
     cx="559.0849"
     cy="236.46857"
     r="30"
     id="circle10"
     style="fill:#00a2b8;fill-opacity:0.24444444" />
  <circle
     cx="680.0849"
     cy="236.46857"
     r="30"
     id="circle12"
     style="fill:#00a2b8;fill-opacity:0.24444444" />
  <circle
     cx="12.5"
     cy="20.34461"
     r="3"
     fill="#f86b75"
     id="circle14" />
  <circle
     cx="21.5"
     cy="20.34461"
     r="3"
     fill="#fad375"
     id="circle16" />
  <circle
     cx="30.5"
     cy="20.34461"
     r="3"
     fill="#8bcc55"
     id="circle18" />
  <rect
     x="67"
     y="66.84461"
     width="206"
     height="64"
     fill="#00a2b8"
     id="rect20"
     style="fill:#00a2b8;fill-opacity:0.24444444" />
  <rect
     x="0.5"
     y="10.34461"
     width="364"
     height="216"
     stroke-miterlimit="10"
     id="rect22"
     stroke="#3f3d56"
     fill="none" />
  <line
     x1="0.5"
     y1="26.70288"
     x2="364.5"
     y2="26.70288"
     fill="none"
     stroke="#3f3d56"
     stroke-miterlimit="10"
     id="line24" />
  <circle
     cx="13.5"
     cy="18.34461"
     r="3"
     fill="none"
     stroke="#3f3d56"
     stroke-miterlimit="10"
     id="circle26" />
  <circle
     cx="22.5"
     cy="18.34461"
     r="3"
     fill="none"
     stroke="#3f3d56"
     stroke-miterlimit="10"
     id="circle28" />
  <circle
     cx="31.5"
     cy="18.34461"
     r="3"
     fill="none"
     stroke="#3f3d56"
     stroke-miterlimit="10"
     id="circle30" />
  <rect
     x="79.5"
     y="54.34461"
     width="206"
     height="64"
     fill="none"
     stroke="#3f3d56"
     stroke-miterlimit="10"
     id="rect32" />
  <rect
     x="41"
     y="158.84461"
     width="276"
     height="8.27586"
     fill="#f2f2f2"
     id="rect34" />
  <rect
     x="41"
     y="178.70668"
     width="276"
     height="8.27586"
     fill="#f2f2f2"
     id="rect36" />
  <rect
     x="41"
     y="198.56875"
     width="276"
     height="8.27586"
     fill="#f2f2f2"
     id="rect38" />
  <rect
     x="44"
     y="154.84461"
     width="276"
     height="8.27586"
     fill="none"
     stroke="#3f3d56"
     stroke-miterlimit="10"
     id="rect40" />
  <rect
     x="44"
     y="174.70668"
     width="276"
     height="8.27586"
     fill="none"
     stroke="#3f3d56"
     stroke-miterlimit="10"
     id="rect42" />
  <rect
     x="44"
     y="194.56875"
     width="276"
     height="8.27586"
     fill="none"
     stroke="#3f3d56"
     stroke-miterlimit="10"
     id="rect44" />
  <circle
     cx="98.084877"
     cy="326.46857"
     r="3"
     id="circle46"
     style="fill:#f86b75" />
  <circle
     cx="107.08488"
     cy="326.46857"
     r="3"
     id="circle48"
     style="fill:#fad375" />
  <circle
     cx="116.08488"
     cy="326.46857"
     r="3"
     id="circle50"
     style="fill:#8bcc55" />
  <rect
     x="152.58488"
     y="372.96857"
     width="206"
     height="64"
     id="rect52"
     style="fill:#00a2b8;fill-opacity:0.24444444" />
  <polyline
     points="448.5 428.345 448.5 600.345 84.5 600.345 84.5 384.345 380.5 384.345"
     stroke-miterlimit="10"
     id="polyline54"
     transform="translate(1.58488,-67.876044)"
     style="fill:none;stroke:#3f3d56;stroke-miterlimit:10" />
  <line
     x1="86.084877"
     y1="332.82684"
     x2="382.58487"
     y2="332.82684"
     stroke-miterlimit="10"
     id="line56"
     style="fill:none;stroke:#3f3d56;stroke-miterlimit:10" />
  <circle
     cx="99.084877"
     cy="324.46857"
     r="3"
     stroke-miterlimit="10"
     id="circle58"
     style="fill:none;stroke:#3f3d56;stroke-miterlimit:10" />
  <circle
     cx="108.08488"
     cy="324.46857"
     r="3"
     stroke-miterlimit="10"
     id="circle60"
     style="fill:none;stroke:#3f3d56;stroke-miterlimit:10" />
  <circle
     cx="117.08488"
     cy="324.46857"
     r="3"
     stroke-miterlimit="10"
     id="circle62"
     style="fill:none;stroke:#3f3d56;stroke-miterlimit:10" />
  <rect
     x="165.08488"
     y="360.46857"
     width="206"
     height="64"
     stroke-miterlimit="10"
     id="rect64"
     style="fill:none;stroke:#3f3d56;stroke-miterlimit:10" />
  <circle
     cx="394.08487"
     cy="153.46857"
     r="3"
     id="circle66"
     style="fill:#f86b75" />
  <circle
     cx="403.08487"
     cy="153.46857"
     r="3"
     id="circle68"
     style="fill:#fad375" />
  <circle
     cx="412.08487"
     cy="153.46857"
     r="3"
     id="circle70"
     style="fill:#8bcc55" />
  <rect
     x="382.08487"
     y="143.46857"
     width="364"
     height="216"
     stroke-miterlimit="10"
     id="rect72"
     style="fill:none;stroke:#3f3d56;stroke-miterlimit:10" />
  <line
     x1="382.08487"
     y1="159.82684"
     x2="746.0849"
     y2="159.82684"
     stroke-miterlimit="10"
     id="line74"
     style="fill:none;stroke:#3f3d56;stroke-miterlimit:10" />
  <circle
     cx="395.08487"
     cy="151.46857"
     r="3"
     stroke-miterlimit="10"
     id="circle76"
     style="fill:none;stroke:#3f3d56;stroke-miterlimit:10" />
  <circle
     cx="404.08487"
     cy="151.46857"
     r="3"
     stroke-miterlimit="10"
     id="circle78"
     style="fill:none;stroke:#3f3d56;stroke-miterlimit:10" />
  <circle
     cx="413.08487"
     cy="151.46857"
     r="3"
     stroke-miterlimit="10"
     id="circle80"
     style="fill:none;stroke:#3f3d56;stroke-miterlimit:10" />
  <circle
     cx="443.08487"
     cy="231.46857"
     r="30"
     stroke-miterlimit="10"
     id="circle82"
     style="fill:none;stroke:#3f3d56;stroke-miterlimit:10" />
  <circle
     cx="564.0849"
     cy="231.46857"
     r="30"
     stroke-miterlimit="10"
     id="circle84"
     style="fill:none;stroke:#3f3d56;stroke-miterlimit:10" />
  <circle
     cx="685.0849"
     cy="231.46857"
     r="30"
     stroke-miterlimit="10"
     id="circle86"
     style="fill:none;stroke:#3f3d56;stroke-miterlimit:10" />
  <rect
     x="397.58487"
     y="286.96857"
     width="82"
     height="8"
     id="rect88"
     style="fill:#f2f2f2" />
  <rect
     x="519.5849"
     y="286.96857"
     width="82"
     height="8"
     id="rect90"
     style="fill:#f2f2f2" />
  <rect
     x="641.5849"
     y="286.96857"
     width="82"
     height="8"
     id="rect92"
     style="fill:#f2f2f2" />
  <rect
     x="401.58487"
     y="283.96857"
     width="82"
     height="8"
     stroke-miterlimit="10"
     id="rect94"
     style="fill:none;stroke:#3f3d56;stroke-miterlimit:10" />
  <rect
     x="523.5849"
     y="283.96857"
     width="82"
     height="8"
     stroke-miterlimit="10"
     id="rect96"
     style="fill:none;stroke:#3f3d56;stroke-miterlimit:10" />
  <rect
     x="645.5849"
     y="283.96857"
     width="82"
     height="8"
     stroke-miterlimit="10"
     id="rect98"
     style="fill:none;stroke:#3f3d56;stroke-miterlimit:10" />
  <rect
     x="99.584877"
     y="461.96857"
     width="63"
     height="54"
     id="rect100"
     style="fill:#f2f2f2" />
  <rect
     x="216.08488"
     y="462.46857"
     width="63"
     height="54"
     id="rect102"
     style="fill:#f2f2f2" />
  <rect
     x="332.58487"
     y="462.96857"
     width="63"
     height="54"
     id="rect104"
     style="fill:#f2f2f2" />
  <rect
     x="108.58488"
     y="451.96857"
     width="63"
     height="54"
     stroke-miterlimit="10"
     id="rect106"
     style="fill:none;stroke:#3f3d56;stroke-miterlimit:10" />
  <rect
     x="225.08488"
     y="452.46857"
     width="63"
     height="54"
     stroke-miterlimit="10"
     id="rect108"
     style="fill:none;stroke:#3f3d56;stroke-miterlimit:10" />
  <rect
     x="341.58487"
     y="452.96857"
     width="63"
     height="54"
     stroke-miterlimit="10"
     id="rect110"
     style="fill:none;stroke:#3f3d56;stroke-miterlimit:10" />
  <path
     d="M792.33488,347.04626l5-11s12-32,1-26-15,22-15,22l-3,10Z"
     transform="translate(-183.75 -111.0777)"
     fill="#a0616a"
     id="path120" />
  <path
     d="M929.33488,513.04626s-17,33-22,34-5-30-5-30,10-9,14-8S929.33488,513.04626,929.33488,513.04626Z"
     transform="translate(-183.75 -111.0777)"
     fill="#a0616a"
     id="path122" />
  <path
     d="M904.33488,721.04626s9,5,5,16-6,8-8,17-20,8-21,4-3-20,2-26S904.33488,721.04626,904.33488,721.04626Z"
     transform="translate(-183.75 -111.0777)"
     fill="#55536e"
     id="path124" />
  <path
     d="M815.33488,721.04626s-9,5-5,16,6,8,8,17,20,8,21,4,3-20-2-26S815.33488,721.04626,815.33488,721.04626Z"
     transform="translate(-183.75 -111.0777)"
     fill="#55536e"
     id="path126" />
  <path
     d="M899.33488,521.04626s8,5,10,36-1,66-2,74,1,20,3,26-5,52-5,52a23.4326,23.4326,0,0,1,0,20c-5,11-20,22-24,11a27.13063,27.13063,0,0,0-3-11c-3-6,2-30,2-30s-4-38-3-48-12-69-14-79-1-18-2-15-19,86-19,86,2,53,1,60,4,21,1,26-9,23-20,12-9-15-10-20,0-11,0-19-8-53-4-60,2-16,1-32-2-93,8-107S899.33488,521.04626,899.33488,521.04626Z"
     transform="translate(-183.75 -111.0777)"
     fill="#3f3d56"
     id="path128" />
  <circle
     cx="691.08488"
     cy="198.46856"
     r="24"
     fill="#a0616a"
     id="circle130" />
  <path
     d="M890.33488,319.04626s-1,36,4,42-43-5-43-5,11-23,4-38S890.33488,319.04626,890.33488,319.04626Z"
     transform="translate(-183.75 -111.0777)"
     fill="#a0616a"
     id="path132" />
  <path
     d="M899.33488,357.04626s-2-8-14-10-26.19084-4-30.59542,0-6.40458,9-9.40458,9h-14l-22,39s11,13,8,37-8,68-8,68a219.99527,219.99527,0,0,1,21,34c10,20,79,18,75-17,0,0-5-9-3-17s8-62,8-62l23-61S901.33488,361.04626,899.33488,357.04626Z"
     transform="translate(-183.75 -111.0777)"
     fill="#55536e"
     id="path134" />
  <path
     d="M926.33488,376.04626h7s4,23,3,37-1,47-1,47,4,8,3,15-3,26-3,26-1,27-20,13c0,0-6-3-3-16s-2-27-2-27,3-9,2-15-5-25-5-25Z"
     transform="translate(-183.75 -111.0777)"
     fill="#55536e"
     id="path136" />
  <path
     d="M836.33488,359.04626l-5-3s-7-3-17,0-15,2-19,1-1-11-1-11-8-14-16-6-8,24-8,24-5,10,13,16,26,15,26,15h20Z"
     transform="translate(-183.75 -111.0777)"
     fill="#55536e"
     id="path138" />
  <path
     d="M873.20839,338.19386a4.63628,4.63628,0,0,0-2.8751-4.13,13.10926,13.10926,0,0,0-3.41741-.67489c-3.40526-.43912-6.90823-1.6879-8.8918-4.28928-2.64122-3.46385-1.91928-8.30936-4.03611-12.0696a41.85984,41.85984,0,0,0-3.22706-4.24013c-3.69409-4.94381-4.34515-11.25545-4.68151-17.26a7.41034,7.41034,0,0,1,.40689-3.60635,13.863,13.863,0,0,1,2.28185-2.81564,9.35213,9.35213,0,0,0,2.26249-6.241c-.10806-4.6505,6.54605-7.77555,11.25866-9.38154s9.82338-1.86178,14.84422-1.92973c2.88641-.03906,5.86539-.00491,8.51833,1.04929a19.607,19.607,0,0,1,4.27089,2.54282c5.5601,4.0699,10.78209,9.07349,12.64833,15.40628a33.3114,33.3114,0,0,1,1.01324,8.8482,5.7908,5.7908,0,0,1-.39612,2.72307c-.66724,1.34161-2.24018,2.06829-3.25707,3.2061-1.89928,2.12511-1.56121,5.19994-1.80185,7.94983a18.21013,18.21013,0,0,1-8.944,13.77276,11.406,11.406,0,0,0-2.79721,1.9338,12.27894,12.27894,0,0,0-1.54257,2.69289C882.84517,335.5174,877.80544,338.05811,873.20839,338.19386Z"
     transform="translate(-183.75 -111.0777)"
     fill="#3f3d56"
     id="path140" />
</svg>
