<?xml version="1.0" ?><svg enable-background="new 0 0 24 24" id="Layer_1" version="1.1" viewBox="0 0 24 24" xml:space="preserve" xmlns="http://www.w3.org/2000/svg" xmlns:xlink="http://www.w3.org/1999/xlink"><g><path d="M23,10.434783C23,4.6717687,18.0751553,0,12,0   C6.2577252,0,1.4993838,4.0672979,1,9.391304C4.0119047,6.3913045,7.5,4,12,4.173913   c2.5192957,0.0973639,4.69804,2.2884912,4.69804,6.3319693l-9.4196091-0.0039215   c0-1.304348,0.5310922-2.6758738,1.578711-4.2410913c-3.492063,1.9130435-5.7619042,4.1500297-5.7619042,8.347826   c0,5.1866283,4.9248452,9.391304,11,9.391304c2.5738411,0,4.9356518-0.5728168,6.8095245-1.6212635V17.73913   c-1.435297,1.075386-3.3611107,2.086956-5.7619047,2.086956c-4.0545368,0-7.828105-1.1462898-7.9154067-5.3202038L23,14.4980392   V10.434783z" fill="#009ADA" id="XMLID_1314_"/><linearGradient gradientUnits="userSpaceOnUse" id="SVGID_1_" x1="8.0900354" x2="15.9039469" y1="8.8151512" y2="12.4588385"><stop offset="0" style="stop-color:#FFFFFF;stop-opacity:0.2"/><stop offset="1" style="stop-color:#FFFFFF;stop-opacity:0"/></linearGradient><path d="M7.2784424,10.7519531l9.4196167,0.0039062c0-0.0884399-0.0151367-0.1633301-0.0172119-0.25   l-9.3773804-0.0039062C7.2992554,10.5845947,7.2784424,10.6698608,7.2784424,10.7519531z" fill="url(#SVGID_1_)"/><linearGradient gradientUnits="userSpaceOnUse" id="SVGID_2_" x1="4.3917594" x2="6.718575" y1="9.7619696" y2="10.846982"><stop offset="0" style="stop-color:#FFFFFF;stop-opacity:0.2"/><stop offset="1" style="stop-color:#FFFFFF;stop-opacity:0"/></linearGradient><path d="M3.0952148,14.6087036c0,0.0458374,0.0072021,0.0900879,0.0079956,0.1357422   c0.0420532-4.0227661,2.1987915-6.2302856,5.5194702-8.0955811c0.081665-0.1304932,0.1452637-0.2547607,0.234436-0.3880005   C5.3650513,8.1738892,3.0952148,10.4108887,3.0952148,14.6087036z" fill="url(#SVGID_2_)"/><path d="M12,0C6.2577515,0,1.4993896,4.0672607,1,9.3912964   c0.0139771-0.013916,0.0283203-0.0272827,0.0422974-0.0411377C1.6861572,4.1713257,6.3640747,0.25,12,0.25   c6.0751343,0,11,4.6717529,11,10.4347534v-0.25C23,4.6717529,18.0751343,0,12,0z" fill="#FFFFFF" opacity="0.2"/><linearGradient gradientUnits="userSpaceOnUse" id="SVGID_3_" x1="7.2858253" x2="19.7586975" y1="14.6307325" y2="20.446928"><stop offset="0" style="stop-color:#FFFFFF;stop-opacity:0.2"/><stop offset="1" style="stop-color:#FFFFFF;stop-opacity:0"/></linearGradient><path d="M15.1428833,20.0760498c2.4007568,0,4.3265991-1.0115356,5.7619019-2.0869141v-0.25   c-1.4353027,1.0753784-3.361145,2.0869141-5.7619019,2.0869141c-3.9698486,0-7.6608887-1.1066284-7.895752-5.0701904H7.227478   C7.3147583,18.9298096,11.0883179,20.0760498,15.1428833,20.0760498z" fill="url(#SVGID_3_)"/><path d="M7.2471313,14.5117645L23,14.503952v-0.25L7.227478,14.2617645   C7.2293091,14.3489838,7.2421265,14.4271698,7.2471313,14.5117645z" opacity="0.1"/><path d="M14.0952148,23.9941177c2.5738525,0,4.9356689-0.5728149,6.8095703-1.6212769v-0.25   c-1.8739014,1.0484619-4.2357178,1.6212769-6.8095703,1.6212769c-6.0214233,0-10.9060059-4.1322632-10.9920044-9.2555542   c-0.0004272,0.039978-0.0079956,0.0739136-0.0079956,0.1142578C3.0952148,19.7894058,8.0200806,23.9941177,14.0952148,23.9941177z" opacity="0.1"/><path d="M12,4.171875c2.4641724,0.0952148,4.588501,2.2062988,4.6808472,6.0819702h0.0172119   c0-4.043457-2.178772-6.2346191-4.6980591-6.3319702C7.520874,3.7487793,4.0446167,6.1176758,1.0422974,9.0981445   C1.0301514,9.1958618,1.0092163,9.2907104,1,9.3892822C4.0119019,6.3892822,7.5,3.9979858,12,4.171875z" opacity="0.1"/><linearGradient gradientUnits="userSpaceOnUse" id="XMLID_44_" x1="1.6154208" x2="23.4544373" y1="6.7272415" y2="16.9109421"><stop offset="0" style="stop-color:#FFFFFF;stop-opacity:0.2"/><stop offset="1" style="stop-color:#FFFFFF;stop-opacity:0"/></linearGradient><path d="M23,10.434783C23,4.6717687,18.0751553,0,12,0   C6.2577252,0,1.4993838,4.0672979,1,9.391304C4.0119047,6.3913045,7.5,4,12,4.173913   c2.5192957,0.0973639,4.69804,2.2884912,4.69804,6.3319693l-9.4196091-0.0039215   c0-1.304348,0.5310922-2.6758738,1.578711-4.2410913c-3.492063,1.9130435-5.7619042,4.1500297-5.7619042,8.347826   c0,5.1866283,4.9248452,9.391304,11,9.391304c2.5738411,0,4.9356518-0.5728168,6.8095245-1.6212635V17.73913   c-1.435297,1.075386-3.3611107,2.086956-5.7619047,2.086956c-4.0545368,0-7.828105-1.1462898-7.9154067-5.3202038L23,14.4980392   V10.434783z" fill="url(#XMLID_44_)" id="XMLID_1354_"/></g><g/><g/><g/><g/><g/><g/><g/><g/><g/><g/><g/><g/><g/><g/><g/></svg>