<?xml version="1.0" encoding="utf-8"?>
<!-- Generator: Adobe Illustrator 22.1.0, SVG Export Plug-In . SVG Version: 6.00 Build 0)  -->
<svg version="1.1" id="Layer_1" xmlns="http://www.w3.org/2000/svg" xmlns:xlink="http://www.w3.org/1999/xlink" x="0px" y="0px"
	 viewBox="0 0 640 640" style="enable-background:new 0 0 640 640;" xml:space="preserve">
<style type="text/css">
	.st0{fill:url(#SVGID_1_);}
	.st1{enable-background:new    ;}
	.st2{fill:#FFFFFF;}
</style>
<linearGradient id="SVGID_1_" gradientUnits="userSpaceOnUse" x1="0" y1="642" x2="640" y2="2" gradientTransform="matrix(1 0 0 -1 0 642)">
	<stop  offset="0" style="stop-color:#18BC9C"/>
	<stop  offset="1" style="stop-color:#2C3E50"/>
</linearGradient>
<rect class="st0" width="640" height="640"/>
<g>
	<g id="ioFxTEW1z">
		<g>
			<g class="st1">
				<path class="st2" d="M284.2,448.1c2.9-4.1,6.4-7.4,10.5-9.9c4.1-2.5,8.4-4.2,12.8-5c4.5-0.8,9.1-0.7,13.8,0.3
					c4.7,1,9.1,3,13.2,5.9c4.1,2.9,7.3,6.5,9.8,10.6c2.5,4.1,4.1,8.5,4.9,13.1c0.8,4.6,0.6,9.2-0.5,13.9c-1.1,4.7-3.1,9-6,13.1
					c-3,4.2-6.6,7.6-10.6,10c-4,2.5-8.3,4.1-12.9,4.8c-4.6,0.8-9.2,0.6-13.9-0.5c-4.7-1.1-9-3.1-13.1-6c-4.1-2.9-7.4-6.4-9.9-10.5
					c-2.5-4.1-4.1-8.4-4.8-12.9c-0.7-4.5-0.5-9.1,0.5-13.7C279.2,456.7,281.2,452.3,284.2,448.1z M439.4,134.1
					c8.1-1.1,16.6-1.5,25.4-1.4c8.8,0.1,17.8,1.1,27,3c9.2,1.9,18.5,4.8,27.9,8.8c9.4,4,18.7,9.3,28.1,16.1
					c12.4,8.9,22.6,18.9,30.6,30.1c8,11.2,13.5,22.8,16.4,34.9c3,12.1,3.3,24.4,0.9,36.9c-2.4,12.5-7.7,24.7-16.2,36.5
					c-8.5,11.9-17.7,20.9-27.4,27c-9.7,6.1-19.6,10.5-29.7,13.1c-10.1,2.6-20,4-29.9,4.2c-9.9,0.2-19.1,0.4-27.7,0.6
					c-8.6,0.2-16.4,1-23.4,2.4c-7,1.4-12.7,4.4-17,9.1l-30,32.9l-28.7-20.6l25.1-41l1.9-2.6c4.7-6.6,10.7-11.2,17.8-13.7
					c7.2-2.6,15.1-4.1,23.7-4.7c8.6-0.6,17.6-0.9,27-0.9c9.4,0,18.7-0.8,28-2.3c9.3-1.5,18.2-4.5,26.6-8.9
					c8.5-4.4,16.1-11.3,22.8-20.7c4.8-6.7,7.9-13.8,9.1-21.2c1.3-7.4,1-14.6-0.8-21.7c-1.8-7.1-5.1-13.9-9.8-20.4
					c-4.7-6.5-10.6-12.2-17.7-17.3c-9.6-6.9-18.6-11.5-27.1-14.1c-8.5-2.5-16.1-4.1-22.8-4.6c-6.7-0.5-12.4-0.7-17-0.4
					c-4.6,0.3-7.8-0.3-9.7-1.6c-3.9-2.8-5.7-6.8-5.3-12L439.4,134.1z"/>
			</g>
		</g>
	</g>
	<g id="iEjdJlgrt">
		<g>
			<g class="st1">
				<path class="st2" d="M110.7,144.6L207,279c5.1,7.1,9.9,14,14.5,20.9c4.6,6.9,9.1,13.9,13.5,21.1c4.4,7.2,8.8,14.5,13.2,22.2
					c4.4,7.6,9.1,15.9,14,24.7l-28.4,20.4c-6.8-7.5-13.1-14.5-18.9-21.2c-5.8-6.6-11.4-13.2-16.8-19.7c-5.4-6.5-10.6-13-15.6-19.6
					c-5.1-6.6-10.1-13.4-15.2-20.4L71,173L110.7,144.6z M283.7,491.3c-2.9-4.1-4.9-8.4-6-13.1c-1.1-4.7-1.3-9.3-0.6-13.8
					c0.7-4.5,2.3-8.8,4.7-13c2.5-4.1,5.8-7.7,9.8-10.6c4.1-2.9,8.5-4.9,13.2-5.9c4.7-1,9.4-1.1,14-0.4c4.6,0.8,8.9,2.4,13,4.9
					c4.1,2.5,7.6,5.8,10.5,9.9c3,4.2,5.1,8.6,6.1,13.2c1,4.6,1.2,9.2,0.4,13.7c-0.8,4.6-2.4,8.9-4.9,13c-2.5,4.1-5.8,7.6-9.9,10.5
					c-4.1,2.9-8.5,4.9-13.1,6c-4.7,1.1-9.3,1.2-13.8,0.4c-4.5-0.8-8.7-2.4-12.8-4.9C290.2,498.9,286.7,495.5,283.7,491.3z"/>
			</g>
		</g>
	</g>
	<circle class="st2" cx="312.7" cy="470.5" r="36.8"/>
</g>
</svg>
