<svg viewBox="0 0 500 500" xmlns="http://www.w3.org/2000/svg" xmlns:bx="https://boxy-svg.com">
  <g style="" transform="matrix(1.572175, 0, 0, 1.572175, -134.347473, -142.995193)">
    <path d="M 276.027 302.304 C 273.407 302.304 272.097 300.991 272.097 298.364 L 272.097 281.414 C 272.097 272.741 274.214 265.677 278.447 260.224 C 282.687 254.777 289.144 248.624 297.817 241.764 C 303.67 237.124 308.314 233.137 311.747 229.804 C 315.174 226.477 318.05 222.494 320.377 217.854 C 322.697 213.207 323.857 207.757 323.857 201.504 C 323.857 191.417 320.627 183.294 314.167 177.134 C 307.707 170.981 299.13 167.904 288.437 167.904 C 277.544 167.904 268.817 171.031 262.257 177.284 C 255.697 183.544 252.417 191.717 252.417 201.804 L 252.417 210.284 C 252.417 212.704 251.104 213.914 248.477 213.914 L 234.857 213.314 C 232.237 213.314 230.927 212.001 230.927 209.374 L 230.927 201.804 C 230.927 185.864 236.274 172.951 246.967 163.064 C 257.66 153.177 271.687 148.234 289.047 148.234 C 305.994 148.234 319.614 153.077 329.907 162.764 C 340.2 172.444 345.347 185.357 345.347 201.504 C 345.347 210.384 343.884 218.054 340.957 224.514 C 338.03 230.967 334.55 236.214 330.517 240.254 C 326.477 244.287 321.127 248.927 314.467 254.174 C 307.607 259.421 302.464 264.061 299.037 268.094 C 295.604 272.134 293.887 276.977 293.887 282.624 L 293.887 298.364 C 293.887 300.991 292.574 302.304 289.947 302.304 L 276.027 302.304 Z M 284.197 362.234 C 279.157 362.234 274.92 360.571 271.487 357.244 C 268.054 353.917 266.337 349.831 266.337 344.984 C 266.337 340.344 268.104 336.307 271.637 332.874 C 275.17 329.447 279.357 327.734 284.197 327.734 C 289.044 327.734 293.284 329.447 296.917 332.874 C 300.55 336.307 302.367 340.344 302.367 344.984 C 302.367 349.831 300.55 353.917 296.917 357.244 C 293.284 360.571 289.044 362.234 284.197 362.234 Z" style="fill: rgb(51, 51, 51); white-space: pre;" transform="matrix(0.782669, 0.622438, -0.622438, 0.782669, 221.488499, -123.87719)"></path>
    <path d="M 169.92 216.698 C 167.293 216.698 165.98 218.008 165.98 220.628 L 164.47 355.628 C 164.47 358.255 165.783 359.568 168.41 359.568 L 182.029 359.568 C 184.65 359.568 185.96 358.255 185.96 355.628 L 184.15 220.628 C 184.15 218.008 182.837 216.698 180.21 216.698 L 169.92 216.698 Z M 174.46 148.888 C 169.013 148.888 164.523 150.605 160.989 154.038 C 157.456 157.465 155.69 161.701 155.69 166.748 C 155.69 171.588 157.607 175.775 161.44 179.308 C 165.273 182.841 169.613 184.608 174.46 184.608 C 179.3 184.608 183.64 182.841 187.48 179.308 C 191.312 175.775 193.23 171.588 193.23 166.748 C 193.23 161.701 191.413 157.465 187.78 154.038 C 184.147 150.605 179.707 148.888 174.46 148.888 Z" style="fill: rgb(51, 51, 51); white-space: pre;" transform="matrix(-0.782669, 0.622438, -0.622438, -0.782669, 469.245638, 344.613811)"></path>
  </g>
</svg>
